<svg width="407" height="407" viewBox="0 0 407 407" fill="none" xmlns="http://www.w3.org/2000/svg">
<path d="M407 203.5C407 260.402 400.867 329.07 363.221 366C326.51 402.013 258.988 407 203.5 407C148.012 407 80.4898 402.013 43.7791 366C6.13322 329.07 6.23394e-09 260.402 6.23394e-09 203.5C6.23394e-09 148.012 4.20813 79.7107 40.2209 43C77.1511 5.3541 146.598 0 203.5 0C260.402 0 329.849 5.3541 366.779 43C402.792 79.7107 407 148.012 407 203.5Z" fill="#191D21"/>
<path d="M203.54 329.006C187.773 329.006 173.241 326.876 159.946 322.614C146.693 318.353 134.378 311.705 123 302.671V272.373C127.219 275.825 132.354 278.999 138.405 281.897C144.456 284.837 151.082 287.373 158.284 289.504C165.486 291.677 172.943 293.36 180.656 294.553C188.369 295.789 195.997 296.407 203.54 296.407C213.639 296.407 223.803 295.363 234.03 293.275C244.3 291.187 253.803 288.332 262.538 284.71C271.317 281.087 278.518 276.975 284.143 272.373V302.671C272.766 311.705 260.429 318.353 247.133 322.614C233.881 326.876 219.349 329.006 203.54 329.006Z" fill="white"/>
<path d="M202.901 197.442H217.347C217.347 204.857 218.817 209.992 221.757 212.847C224.697 215.745 229.364 217.194 235.756 217.194H247.837C256.402 217.194 263.135 218.451 268.035 220.965C272.936 223.522 276.537 226.995 278.838 231.384C281.139 235.816 282.588 240.929 283.185 246.725C283.824 252.52 284.143 258.678 284.143 265.198H261.196C261.196 260.084 260.578 256.249 259.342 253.692C258.106 251.178 256.231 249.495 253.717 248.642C251.203 247.79 248.028 247.364 244.193 247.364H227.83C224.591 247.364 221.48 246.703 218.497 245.382C215.514 244.061 212.851 241.632 210.507 238.096C208.163 234.559 206.31 229.509 204.946 222.946C203.582 216.426 202.901 207.925 202.901 197.442ZM123 265.198C123 258.678 123.32 252.52 123.959 246.725C124.555 240.929 126.004 235.816 128.305 231.384C130.606 226.995 134.207 223.522 139.108 220.965C144.008 218.451 150.741 217.194 159.307 217.194H171.324C177.758 217.194 182.425 215.745 185.322 212.847C188.263 209.992 189.733 204.857 189.733 197.442H204.243C204.243 207.925 203.54 216.426 202.133 222.946C200.77 229.509 198.916 234.559 196.572 238.096C194.271 241.632 191.629 244.061 188.646 245.382C185.663 246.703 182.553 247.364 179.314 247.364H162.95C159.115 247.364 155.94 247.79 153.426 248.642C150.912 249.495 149.037 251.178 147.801 253.692C146.565 256.249 145.947 260.084 145.947 265.198H123ZM189.733 197.442H217.347V222.946H189.733V197.442Z" fill="white"/>
<path d="M150.166 164.843C150.166 160.24 151.785 156.299 155.024 153.017C158.263 149.779 162.183 148.181 166.785 148.223C171.303 148.181 175.159 149.779 178.355 153.017C181.594 156.299 183.213 160.24 183.213 164.843C183.213 169.189 181.594 173.024 178.355 176.348C175.159 179.715 171.303 181.419 166.785 181.462C163.717 181.419 160.926 180.61 158.412 179.033C155.898 177.499 153.895 175.475 152.403 172.961C150.912 170.489 150.166 167.783 150.166 164.843ZM217.538 164.843C217.538 160.24 219.136 156.299 222.332 153.017C225.571 149.779 229.513 148.181 234.158 148.223C238.675 148.181 242.531 149.779 245.727 153.017C248.966 156.299 250.585 160.24 250.585 164.843C250.585 169.189 248.966 173.024 245.727 176.348C242.531 179.715 238.675 181.419 234.158 181.462C231.089 181.419 228.298 180.61 225.784 179.033C223.27 177.499 221.267 175.475 219.776 172.961C218.284 170.489 217.538 167.783 217.538 164.843Z" fill="white"/>
<path d="M203.54 77C219.349 77 233.881 79.1307 247.133 83.392C260.429 87.6534 272.766 94.3011 284.143 103.335V133.634C279.925 130.224 274.79 127.05 268.739 124.109C262.687 121.169 256.061 118.612 248.859 116.439C241.658 114.308 234.2 112.625 226.487 111.389C218.774 110.196 211.125 109.599 203.54 109.599C193.483 109.599 183.32 110.643 173.05 112.732C162.822 114.82 153.341 117.675 144.605 121.297C135.827 124.919 128.625 129.031 123 133.634V103.335C134.378 94.3011 146.693 87.6534 159.946 83.392C173.241 79.1307 187.773 77 203.54 77Z" fill="white"/>
</svg>
